<svg viewBox="0 0 283 374" fill="none" xmlns="http://www.w3.org/2000/svg">
<path d="M234.2 172.1L247.8 13.3001L266.7 0.200073L282.8 20.0001L250.1 176.9" fill="#8192A4"/>
<path d="M56 142.3L80 366.9L99.3 363L107.8 306.7H119.4L134.7 365.8L145.8 367.3L166.1 142.3H56Z" fill="#425059"/>
<path d="M45.2 250.2C45.2 250.2 39.3 284.2 67.5 284.2C95.7 284.2 58.1 237.2 58.1 237.2" fill="#F4D9BE"/>
<path d="M39 160.6C39 160.6 30.7 243.4 46.2 258.9L70.5 250.2C70.5 250.2 45.5 188 55.9 157.8" fill="#425059"/>
<path d="M223.6 178.2C245.8 176.4 252.8 193.8 247.6 210.5C242.4 227.2 223.6 212.8 223.6 212.8" fill="#F4D9BE"/>
<path d="M112.9 30.5001C112.9 30.5001 70 23.7001 64.6 49.1001C60.6 68.2001 83.6 166.2 83.6 166.2L100.2 98.0001" fill="#425059"/>
<path d="M232.8 172.1L227.3 225.2L246 229L254.4 178.1L232.8 172.1Z" fill="#425059"/>
<path d="M229.7 185C229.7 185 239.8 187.1 239.8 194.4C239.8 201.7 225.7 209 217.9 189.7" fill="#F4D9BE"/>
<path d="M166.8 155.7C166.8 155.7 205.1 175.7 223.6 178.2V212.9C223.6 212.9 205.6 212.1 159.6 166.2" fill="#425059"/>
<path d="M116.4 142.3C116.4 142.3 178.8 121 178.8 159.9L129.8 166.2" fill="#8192A4"/>
<path d="M95.4 142.3C95.4 142.3 33 121 33 159.9L83.7 166.2" fill="#8192A4"/>
<path d="M140.8 56.5001H83.7V166.2H140.8V56.5001Z" fill="#F4D9BE"/>
<path d="M100.2 97.4001C105.5 97.4001 109.8 93.1001 109.8 87.8001H90.6C90.6 93.1001 94.9 97.4001 100.2 97.4001Z" fill="#4A311A"/>
<path d="M127.3 97.4001C132.6 97.4001 136.9 93.1001 136.9 87.8001H117.7C117.7 93.1001 122 97.4001 127.3 97.4001Z" fill="#4A311A"/>
<path d="M254.3 185C252.4 182.4 242.5 175.2 242.5 190.2C242.5 205.2 238.7 223.6 246 223.6C253.3 223.6 264.8 198.9 254.3 185Z" fill="#F4D9BE"/>
<path d="M154 68.5001H69.9L112 23.7001C111.9 23.7001 157.9 23.1001 154 68.5001Z" fill="#8192A4"/>
<path d="M191.6 165.3L176.9 186.3L184.2 193.5L199.5 168.7L191.6 165.3Z" fill="#8192A4"/>
<path d="M223.6 216V176.1L217.9 174.6L216.1 212.9" fill="#8192A4"/>
<path d="M73.7 208.4H112.9L116.4 178.1L122.3 208.4L154.2 212.9L119.6 213.9L117.5 207.1L114 216L73.7 208.4Z" fill="#8192A4"/>
<path d="M67.5 266.5L154.7 269.1L159.6 287.9L56 284.2L67.5 266.5Z" fill="#8192A4"/>
<path d="M145.8 367.3L159.6 373.2H135.2L131.3 352.7" fill="#425059"/>
<path d="M80 366.9L64.2 373.2H97.6L99.3 363" fill="#425059"/>
<path d="M67.5 333.2C104.337 333.2 134.2 303.337 134.2 266.5C134.2 229.663 104.337 199.8 67.5 199.8C30.6626 199.8 0.799988 229.663 0.799988 266.5C0.799988 303.337 30.6626 333.2 67.5 333.2Z" fill="#8192A4"/>
<path d="M67.5 325.9C100.306 325.9 126.9 299.306 126.9 266.5C126.9 233.694 100.306 207.1 67.5 207.1C34.6943 207.1 8.09998 233.694 8.09998 266.5C8.09998 299.306 34.6943 325.9 67.5 325.9Z" fill="#425059"/>
<path opacity="0.3" d="M3.70001 246.8L61.3 328.1L20.9 223.6L83.7 326L27.8 212.9L112 311.4L126.7 291.6L64.2 202.3L39.6 208.4L10.9 231.1" fill="#8192A4"/>
<path opacity="0.4" d="M5.79999 249.8L58 330.8L63.1 331.3L10.8 237.2L18.2 221.6L82.5 324.1L24 218.6L31.3 212.9L107.8 314.2L119 302L47.3 206.5L19.7 219.9" fill="#8192A4"/>
<path d="M67.5 298.4C85.1179 298.4 99.4 284.118 99.4 266.5C99.4 248.882 85.1179 234.6 67.5 234.6C49.8821 234.6 35.6 248.882 35.6 266.5C35.6 284.118 49.8821 298.4 67.5 298.4Z" fill="#425059"/>
<path d="M67.5 291.6C81.3623 291.6 92.6 280.362 92.6 266.5C92.6 252.638 81.3623 241.4 67.5 241.4C53.6377 241.4 42.4 252.638 42.4 266.5C42.4 280.362 53.6377 291.6 67.5 291.6Z" fill="#8192A4"/>
<path d="M67.5 281.8C75.95 281.8 82.8 274.95 82.8 266.5C82.8 258.05 75.95 251.2 67.5 251.2C59.05 251.2 52.2 258.05 52.2 266.5C52.2 274.95 59.05 281.8 67.5 281.8Z" fill="#425059"/>
<path d="M221 171.6L265.9 184.1L266.6 175.7L222.5 164.5L221 171.6Z" fill="#425059"/>
<path d="M251.9 15.7001L261 19.9001L243.8 166.2L266.6 22.3001L279.4 21.2001L251.9 15.7001Z" fill="#9BB3C9"/>
<path d="M122.8 35.8001L146.2 63.1001L129 30.2001" fill="#425059"/>
<path d="M107.5 43.0001L130.9 63.1001L113.7 38.8001" fill="#425059"/>
<path d="M97.8 52.1001L112.9 63.1001L101.7 49.8001" fill="#425059"/>
<path d="M116.4 103.8L136.9 111.3L116.4 126.3V103.8Z" fill="#FFC2C4"/>
</svg>
